<mxfile host="app.diagrams.net" agent="Mozilla/5.0 (Macintosh; Intel Mac OS X 10_15_7) AppleWebKit/537.36 (KHTML, like Gecko) Chrome/140.0.0.0 Safari/537.36" version="28.1.2" pages="3">
  <diagram id="C5RBs43oDa-KdzZeNtuy" name="試験概要">
    <mxGraphModel dx="1019" dy="547" grid="1" gridSize="10" guides="1" tooltips="1" connect="1" arrows="1" fold="1" page="1" pageScale="1" pageWidth="827" pageHeight="1169" math="0" shadow="0">
      <root>
        <mxCell id="WIyWlLk6GJQsqaUBKTNV-0" />
        <mxCell id="WIyWlLk6GJQsqaUBKTNV-1" parent="WIyWlLk6GJQsqaUBKTNV-0" />
        <mxCell id="aGybI54biNBIFPuGLW5Z-0" value="&lt;h1 style=&quot;margin-top: 0px;&quot;&gt;試験概要&lt;/h1&gt;&lt;div&gt;&lt;b&gt;1. 問題概要&lt;/b&gt;&lt;/div&gt;&lt;div&gt;本課題では、ユーザーが自身のプロフィール情報を管理し、さらにプロフィールへの操作履歴（アクションログ）を閲覧できるWebアプリケーションの設計について議論します。候補者には、このアプリケーションのバックエンド（Rails）とフロントエンド（React）の設計方針、主要なコンポーネント、データベーススキーマ、API設計、およびUIとしての仕様について説明してもらいます。&lt;br&gt;&lt;br&gt;&lt;b&gt;全体の流れ：全体60分（最大90分）&lt;br&gt;&lt;/b&gt;・試験説明 ... 5分&lt;br&gt;・検討と質問 ... 10分&lt;br&gt;・口頭試問 ... 40分&lt;br&gt;・クロージング ... 5分&lt;/div&gt;&lt;div&gt;&lt;br&gt;&lt;/div&gt;&lt;div&gt;&lt;b&gt;2. 事前準備&lt;/b&gt;&lt;/div&gt;&lt;div&gt;・Draw.ioの準備: Draw.io の新規作成ページを開いておいてください。必要に応じて、操作の練習をしておいてください。&lt;/div&gt;&lt;div&gt;・AIツールの準備: 実務想定をして、ChatGPTなどの生成AIツールを用意しておいてください。試験中に仕様整理の相談やコード生成に活用することを想定しています。&lt;/div&gt;&lt;div&gt;・画面共有の準備: 試験開始時に画面共有をオンにできるように準備しておいてください。&lt;/div&gt;&lt;div&gt;&lt;br&gt;&lt;b&gt;3. Draw.ioについて&lt;/b&gt;&lt;br&gt;&lt;div&gt;・試験では、以下のDraw.ioテンプレートを使用します。&lt;/div&gt;&lt;div&gt;　テンプレートURL:&amp;nbsp;https://raw.githubusercontent.com/IkutaMayumi/public/main/skillcheck/skillcheck.drawio&lt;/div&gt;&lt;div&gt;・&lt;span style=&quot;background-color: transparent; color: light-dark(rgb(51, 51, 51), rgb(193, 193, 193));&quot;&gt;テンプレートには、以下の2つのタブがあります。&lt;/span&gt;&lt;/div&gt;&lt;div&gt;&lt;div&gt;　・&lt;span style=&quot;background-color: transparent; color: light-dark(rgb(51, 51, 51), rgb(193, 193, 193));&quot;&gt;「仕様整理」タブ: 自由にメモや図解、擬似コードを記載するのに使ってください。&lt;/span&gt;&lt;/div&gt;　・&lt;span style=&quot;background-color: transparent; color: light-dark(rgb(51, 51, 51), rgb(193, 193, 193));&quot;&gt;「&lt;/span&gt;&lt;span style=&quot;background-color: transparent;&quot;&gt;User Profile Page&lt;/span&gt;&lt;span style=&quot;background-color: transparent; color: light-dark(rgb(51, 51, 51), rgb(193, 193, 193));&quot;&gt;」タブ: プロフィールページの基本UIが含まれています。&lt;/span&gt;&lt;/div&gt;&lt;div&gt;&lt;span style=&quot;background-color: transparent; color: light-dark(rgb(51, 51, 51), rgb(193, 193, 193));&quot;&gt;・試験開始前に&lt;/span&gt;&lt;span style=&quot;background-color: transparent; color: light-dark(rgb(51, 51, 51), rgb(193, 193, 193));&quot;&gt;Draw.ioの画面共有をお願いします&lt;/span&gt;&lt;/div&gt;&lt;div&gt;・&lt;span style=&quot;background-color: transparent; color: light-dark(rgb(51, 51, 51), rgb(193, 193, 193));&quot;&gt;議論に沿って、必要な情報をテンプレートの各タブに書き込んでいってください。&lt;br&gt;・&lt;b&gt;試験終了後に更新した.&lt;/b&gt;&lt;/span&gt;&lt;b&gt;&lt;span style=&quot;background-color: transparent;&quot;&gt;drawio&lt;/span&gt;&lt;span style=&quot;background-color: transparent; color: light-dark(rgb(51, 51, 51), rgb(193, 193, 193));&quot;&gt;ファイルをメールにて共有をお願いします。&lt;/span&gt;&lt;/b&gt;&lt;/div&gt;&lt;div&gt;&lt;span style=&quot;background-color: transparent; color: light-dark(rgb(51, 51, 51), rgb(193, 193, 193));&quot;&gt;　・「ファイル」→「名前をつけて保存」&lt;br&gt;&lt;br&gt;&lt;/span&gt;&lt;/div&gt;&lt;b&gt;4. AIツールの使用について&lt;/b&gt;&lt;br&gt;・&lt;span style=&quot;background-color: transparent;&quot;&gt;使用は可能: ChatGPTなどの生成AIツールの利用は自由です。&lt;/span&gt;&lt;div&gt;・画面共有のルール&lt;br&gt;　・AIツールとのやり取りは画面共有に含めていただいて構いません。&lt;br&gt;　・ただし、過去のやり取りにセンシティブな情報が含まれる場合は、共有する範囲を調整してください。&lt;/div&gt;　・画面共有ができない場合は、試験終了後にメールにて提出をお願いします。（画面スクリーンショットもしくはテキストなど）&lt;br&gt;&lt;div&gt;&lt;b&gt;&lt;br class=&quot;Apple-interchange-newline&quot;&gt;5. 課題詳細&lt;/b&gt;&lt;/div&gt;&lt;div&gt;以下の要件を満たすWebアプリケーションの設計について説明してください。面談中に、口頭での説明、Draw.ioを用いた図解、必要に応じて擬似コードや具体的なコードスニペットを共有スクリーンで記述してください。&lt;/div&gt;&lt;div&gt;&lt;br&gt;&lt;/div&gt;&lt;div&gt;&lt;b&gt;コア要件: ユーザープロフィール管理機能&lt;/b&gt;&lt;/div&gt;&lt;div&gt;・ユーザーはログイン後、自身のプロフィールページを閲覧できます。&lt;/div&gt;&lt;div&gt;・プロフィールページでは、以下の情報を表示・編集できます。&lt;/div&gt;&lt;div&gt;　- ユーザー名（必須）&lt;/div&gt;&lt;div&gt;　- メールアドレス（必須）&lt;/div&gt;&lt;div&gt;　- 職種（必須）&lt;/div&gt;&lt;div&gt;　- 自己PR文（任意、複数行可）&lt;/div&gt;&lt;div&gt;　- 職務経歴書（任意、複数可）&lt;/div&gt;&lt;div&gt;　　・ファイル形式: PDFまたはExcel&lt;/div&gt;&lt;div&gt;　　・アップロードしたファイルは後から削除できる&lt;/div&gt;&lt;div&gt;・プロフィール情報の更新は、フォーム送信を通じて行われます。&lt;br&gt;&lt;br&gt;&lt;b&gt;前提情報: 既存機能&lt;/b&gt;&lt;br&gt;ユーザーのログインは既存機能があると仮定し、以下のテーブル定義は既に用意されているものとする。&lt;br&gt;&lt;br&gt;&lt;div&gt;CREATE TABLE users (&lt;/div&gt;&lt;div&gt;&amp;nbsp; id PRIMARY,&lt;/div&gt;&lt;div&gt;&amp;nbsp; name VARCHAR NOT NULL&lt;/div&gt;&lt;div&gt;)&lt;/div&gt;&lt;div&gt;&lt;br&gt;&lt;/div&gt;&lt;div&gt;CREATE TABLE user_email(&lt;/div&gt;&lt;div&gt;&amp;nbsp; user_id INT NOT NULL,&lt;/div&gt;&lt;div&gt;&amp;nbsp; email VARCHAR NOT NULL&lt;/div&gt;&lt;div&gt;&amp;nbsp; is_verified TINYINT NOT NULL&lt;/div&gt;&lt;div&gt;)&lt;/div&gt;&lt;br&gt;&lt;b&gt;6. 口頭試問の内容&lt;br&gt;&lt;/b&gt;以下に関連した質問をしますので、口頭やテキストなどで説明できるように準備をお願いします。&lt;br&gt;&lt;div&gt;・バックエンドのAPI設計&lt;/div&gt;&lt;div&gt;・データベーススキーマ設計&lt;/div&gt;&lt;div&gt;・フロントエンドの主要なコンポーネント構成&lt;br&gt;・&lt;span style=&quot;background-color: transparent; color: light-dark(rgb(51, 51, 51), rgb(193, 193, 193));&quot;&gt;フォームのUIとしての仕様&lt;br&gt;&lt;/span&gt;&lt;span style=&quot;background-color: transparent; color: light-dark(rgb(51, 51, 51), rgb(193, 193, 193));&quot;&gt;・&lt;/span&gt;&lt;span style=&quot;background-color: transparent;&quot;&gt;&lt;/span&gt;&lt;span style=&quot;background-color: transparent;&quot;&gt;AIツールの活用&lt;/span&gt;&lt;/div&gt;&lt;/div&gt;&lt;/div&gt;&lt;div&gt;&lt;br&gt;&lt;/div&gt;" style="text;html=1;whiteSpace=wrap;overflow=hidden;rounded=0;fillColor=#f5f5f5;fontColor=#333333;strokeColor=#666666;" parent="WIyWlLk6GJQsqaUBKTNV-1" vertex="1">
          <mxGeometry x="80" y="80" width="590" height="1250" as="geometry" />
        </mxCell>
      </root>
    </mxGraphModel>
  </diagram>
  <diagram id="DL-vXDK1-uYY52iAVz6u" name="仕様整理">
    <mxGraphModel dx="1584" dy="851" grid="1" gridSize="10" guides="1" tooltips="1" connect="1" arrows="1" fold="1" page="1" pageScale="1" pageWidth="827" pageHeight="1169" math="0" shadow="0">
      <root>
        <mxCell id="0" />
        <mxCell id="1" parent="0" />
        <mxCell id="yjNWj8RgQ7WTDaPsMSxr-6" value="&lt;h1 style=&quot;margin-top: 0px;&quot;&gt;仕様整理&lt;/h1&gt;&lt;div&gt;入力部の仕様（要点）&lt;/div&gt;" style="text;html=1;whiteSpace=wrap;overflow=hidden;rounded=0;fillColor=#f5f5f5;fontColor=#333333;strokeColor=#666666;" parent="1" vertex="1">
          <mxGeometry x="40" y="40" width="440" height="400" as="geometry" />
        </mxCell>
        <mxCell id="fFetwOCJLS78FMropyRP-1" value="&lt;h1 style=&quot;margin-top: 0px;&quot;&gt;仕様メモ&lt;/h1&gt;&lt;div&gt;&lt;div&gt;バックエンドのAPI設計:&lt;br&gt;&lt;br&gt;&lt;/div&gt;&lt;/div&gt;" style="text;html=1;whiteSpace=wrap;overflow=hidden;rounded=0;fillColor=#f5f5f5;fontColor=#333333;strokeColor=#666666;" parent="1" vertex="1">
          <mxGeometry x="520" y="40" width="320" height="1110" as="geometry" />
        </mxCell>
        <mxCell id="XyldVggTUX_Mdkmjazph-1" value="&lt;h1 style=&quot;margin-top: 0px;&quot;&gt;仕様メモ&lt;/h1&gt;&lt;div&gt;&lt;div&gt;データベーススキーマ設計:&amp;nbsp;&lt;br&gt;&lt;br&gt;以下のテーブル定義は既に用意されているものとする。&lt;br&gt;&lt;br&gt;&lt;div&gt;CREATE TABLE users (&lt;/div&gt;&lt;div&gt;&amp;nbsp; id PRIMARY,&lt;/div&gt;&lt;div&gt;&amp;nbsp; name VARCHAR NOT NULL&lt;/div&gt;&lt;div&gt;)&lt;/div&gt;&lt;div&gt;&lt;br&gt;&lt;/div&gt;&lt;div&gt;CREATE TABLE user_email(&lt;/div&gt;&lt;div&gt;&amp;nbsp; user_id INT&amp;nbsp; NOT NULL,&lt;/div&gt;&lt;div&gt;&amp;nbsp; email VARCHAR NOT NULL&lt;/div&gt;&lt;div&gt;&amp;nbsp; is_verified TINYINT NOT NULL&lt;/div&gt;&lt;div&gt;)&lt;/div&gt;&lt;div&gt;&lt;br&gt;&lt;/div&gt;&lt;/div&gt;&lt;/div&gt;" style="text;html=1;whiteSpace=wrap;overflow=hidden;rounded=0;fillColor=#f5f5f5;fontColor=#333333;strokeColor=#666666;" vertex="1" parent="1">
          <mxGeometry x="860" y="40" width="320" height="1110" as="geometry" />
        </mxCell>
        <mxCell id="XyldVggTUX_Mdkmjazph-2" value="&lt;h1 style=&quot;margin-top: 0px;&quot;&gt;仕様メモ&lt;/h1&gt;&lt;div&gt;&lt;div&gt;フロントエンドの主要なコンポーネント構成:&lt;br&gt;&lt;br&gt;&lt;/div&gt;&lt;/div&gt;" style="text;html=1;whiteSpace=wrap;overflow=hidden;rounded=0;fillColor=#f5f5f5;fontColor=#333333;strokeColor=#666666;" vertex="1" parent="1">
          <mxGeometry x="1200" y="40" width="320" height="1110" as="geometry" />
        </mxCell>
      </root>
    </mxGraphModel>
  </diagram>
  <diagram id="profilePage" name="User Profile Page">
    <mxGraphModel dx="1426" dy="766" grid="1" gridSize="10" guides="1" tooltips="1" connect="1" arrows="1" fold="1" page="1" pageScale="1" pageWidth="1920" pageHeight="1080" math="0" shadow="0">
      <root>
        <mxCell id="0" />
        <mxCell id="1" parent="0" />
        <mxCell id="bg" value="" style="rounded=0;whiteSpace=wrap;html=1;fillColor=#FFFFFF;strokeColor=none;" parent="1" vertex="1">
          <mxGeometry width="1200" height="800" as="geometry" />
        </mxCell>
        <mxCell id="header" value="ヘッダー" style="rounded=0;whiteSpace=wrap;html=1;fillColor=#F5F5F5;strokeColor=#CCCCCC;fontSize=16;fontStyle=1;align=left;spacingLeft=16;" parent="1" vertex="1">
          <mxGeometry x="50" y="40" width="1100" height="60" as="geometry" />
        </mxCell>
        <mxCell id="profile_section" value="プロフィール情報セクション" style="rounded=0;whiteSpace=wrap;html=1;fillColor=#FFFFFF;strokeColor=#CCCCCC;align=left;spacingLeft=12;fontSize=14;" parent="1" vertex="1">
          <mxGeometry x="50" y="120" width="1100" height="640" as="geometry" />
        </mxCell>
        <mxCell id="section_title" value="ユーザープロフィール" style="rounded=0;whiteSpace=wrap;html=1;fillColor=none;strokeColor=none;fontSize=18;fontStyle=1;" parent="1" vertex="1">
          <mxGeometry x="70" y="140" width="300" height="30" as="geometry" />
        </mxCell>
        <mxCell id="label_username" value="ユーザー名（必須）" style="text;strokeColor=none;fillColor=none;align=left;verticalAlign=middle;fontSize=13;" parent="1" vertex="1">
          <mxGeometry x="70" y="190" width="200" height="24" as="geometry" />
        </mxCell>
        <mxCell id="input_username" value="" style="rounded=0;whiteSpace=wrap;html=1;fillColor=#FFFFFF;strokeColor=#BDBDBD;" parent="1" vertex="1">
          <mxGeometry x="280" y="185" width="500" height="34" as="geometry" />
        </mxCell>
        <mxCell id="hint_username" value="フルネームを入力" style="text;strokeColor=none;fillColor=none;align=left;verticalAlign=top;fontSize=11;fontColor=#888888;" parent="1" vertex="1">
          <mxGeometry x="280" y="222" width="500" height="16" as="geometry" />
        </mxCell>
        <mxCell id="label_email" value="メールアドレス（編集不可）" style="text;strokeColor=none;fillColor=none;align=left;verticalAlign=middle;fontSize=13;" parent="1" vertex="1">
          <mxGeometry x="70" y="250" width="200" height="24" as="geometry" />
        </mxCell>
        <mxCell id="input_email" value="user@example.com" style="rounded=0;whiteSpace=wrap;html=1;fillColor=#FAFAFA;strokeColor=#BDBDBD;fontColor=#666666;" parent="1" vertex="1">
          <mxGeometry x="280" y="245" width="500" height="34" as="geometry" />
        </mxCell>
        <mxCell id="badge_readonly" value="読み取り専用" style="rounded=0;whiteSpace=wrap;html=1;fillColor=#EEEEEE;strokeColor=#BDBDBD;fontSize=10;" parent="1" vertex="1">
          <mxGeometry x="790" y="245" width="90" height="24" as="geometry" />
        </mxCell>
        <mxCell id="label_occupation" value="職種（選択式）" style="text;strokeColor=none;fillColor=none;align=left;verticalAlign=middle;fontSize=13;" parent="1" vertex="1">
          <mxGeometry x="70" y="310" width="200" height="24" as="geometry" />
        </mxCell>
        <mxCell id="select_occupation" value="▼ エンジニア / デザイナー / PM ..." style="rounded=0;whiteSpace=wrap;html=1;fillColor=#FFFFFF;strokeColor=#BDBDBD;align=left;spacingLeft=10;" parent="1" vertex="1">
          <mxGeometry x="280" y="305" width="500" height="34" as="geometry" />
        </mxCell>
        <mxCell id="label_pr" value="自己PR（複数行入力）" style="text;strokeColor=none;fillColor=none;align=left;verticalAlign=middle;fontSize=13;" parent="1" vertex="1">
          <mxGeometry x="70" y="370" width="200" height="24" as="geometry" />
        </mxCell>
        <mxCell id="textarea_pr" value="実績やスキル、志向などを記入してください。" style="rounded=0;whiteSpace=wrap;html=1;fillColor=#FFFFFF;strokeColor=#BDBDBD;align=left;verticalAlign=top;spacingLeft=10;spacingTop=8;" parent="1" vertex="1">
          <mxGeometry x="280" y="365" width="730" height="120" as="geometry" />
        </mxCell>
        <mxCell id="label_resume" value="職務経歴書（PDF/Excelアップロード）" style="text;strokeColor=none;fillColor=none;align=left;verticalAlign=middle;fontSize=13;" parent="1" vertex="1">
          <mxGeometry x="70" y="510" width="260" height="24" as="geometry" />
        </mxCell>
        <mxCell id="upload_box" value="ファイルを選択（.pdf, .xls, .xlsx）" style="rounded=0;whiteSpace=wrap;html=1;fillColor=#FFFFFF;strokeColor=#BDBDBD;align=center;dashed=1;dashPattern=4 4;" parent="1" vertex="1">
          <mxGeometry x="340" y="505" width="430" height="60" as="geometry" />
        </mxCell>
        <mxCell id="upload_hint" value="最大10MB。複数ファイル可（任意）。" style="text;strokeColor=none;fillColor=none;align=left;verticalAlign=top;fontSize=11;fontColor=#888888;" parent="1" vertex="1">
          <mxGeometry x="340" y="570" width="430" height="16" as="geometry" />
        </mxCell>
        <mxCell id="btn_cancel" value="キャンセル" style="rounded=0;whiteSpace=wrap;html=1;fillColor=#EEEEEE;strokeColor=#BDBDBD;align=center;" parent="1" vertex="1">
          <mxGeometry x="920" y="650" width="100" height="40" as="geometry" />
        </mxCell>
        <mxCell id="btn_save" value="保存" style="rounded=0;whiteSpace=wrap;html=1;fillColor=#1976D2;fontColor=#FFFFFF;strokeColor=#1565C0;align=center;fontStyle=1;" parent="1" vertex="1">
          <mxGeometry x="1030" y="650" width="120" height="40" as="geometry" />
        </mxCell>
        <mxCell id="required_note" value="※ 必須項目はラベルに（必須）を表示し、未入力時は即時にエラーメッセージを表示" style="text;strokeColor=none;fillColor=none;align=left;verticalAlign=top;fontSize=11;fontColor=#888888;" parent="1" vertex="1">
          <mxGeometry x="70" y="700" width="900" height="20" as="geometry" />
        </mxCell>
      </root>
    </mxGraphModel>
  </diagram>
</mxfile>
